<mxfile host="app.diagrams.net" modified="2024-03-10T23:46:55.777Z" agent="Mozilla/5.0 (Windows NT 10.0; Win64; x64) AppleWebKit/537.36 (KHTML, like Gecko) Chrome/122.0.0.0 Safari/537.36 Edg/122.0.0.0" etag="_PIC2FAEt9QqB3LUIwfa" version="24.0.4" type="device">
  <diagram name="Página-1" id="39cgBoeGgnNf_VbYzvcN">
    <mxGraphModel dx="2483" dy="759" grid="1" gridSize="10" guides="1" tooltips="1" connect="1" arrows="1" fold="1" page="1" pageScale="1" pageWidth="827" pageHeight="1169" math="0" shadow="0">
      <root>
        <mxCell id="0" />
        <mxCell id="1" parent="0" />
        <mxCell id="AZC6bpRZ7sntLklHHA0F-3" value="" style="edgeStyle=orthogonalEdgeStyle;rounded=0;orthogonalLoop=1;jettySize=auto;html=1;" edge="1" parent="1" source="AZC6bpRZ7sntLklHHA0F-1" target="AZC6bpRZ7sntLklHHA0F-2">
          <mxGeometry relative="1" as="geometry" />
        </mxCell>
        <mxCell id="AZC6bpRZ7sntLklHHA0F-1" value="INICIO" style="ellipse;whiteSpace=wrap;html=1;fillColor=#5EA9FF;" vertex="1" parent="1">
          <mxGeometry x="354" y="20" width="120" height="80" as="geometry" />
        </mxCell>
        <mxCell id="AZC6bpRZ7sntLklHHA0F-5" value="" style="edgeStyle=orthogonalEdgeStyle;rounded=0;orthogonalLoop=1;jettySize=auto;html=1;" edge="1" parent="1" source="AZC6bpRZ7sntLklHHA0F-2" target="AZC6bpRZ7sntLklHHA0F-4">
          <mxGeometry relative="1" as="geometry" />
        </mxCell>
        <mxCell id="AZC6bpRZ7sntLklHHA0F-2" value="Solicitar el primer número entero" style="shape=parallelogram;perimeter=parallelogramPerimeter;whiteSpace=wrap;html=1;fixedSize=1;fillColor=#3CFF2E;" vertex="1" parent="1">
          <mxGeometry x="311" y="180" width="206" height="60" as="geometry" />
        </mxCell>
        <mxCell id="AZC6bpRZ7sntLklHHA0F-7" value="" style="edgeStyle=orthogonalEdgeStyle;rounded=0;orthogonalLoop=1;jettySize=auto;html=1;" edge="1" parent="1" source="AZC6bpRZ7sntLklHHA0F-4" target="AZC6bpRZ7sntLklHHA0F-6">
          <mxGeometry relative="1" as="geometry" />
        </mxCell>
        <mxCell id="AZC6bpRZ7sntLklHHA0F-4" value="Solicitar el segundo numero entero" style="shape=parallelogram;perimeter=parallelogramPerimeter;whiteSpace=wrap;html=1;fixedSize=1;fillColor=#3CFF2E;" vertex="1" parent="1">
          <mxGeometry x="306" y="320" width="216" height="60" as="geometry" />
        </mxCell>
        <mxCell id="AZC6bpRZ7sntLklHHA0F-9" value="" style="edgeStyle=orthogonalEdgeStyle;rounded=0;orthogonalLoop=1;jettySize=auto;html=1;" edge="1" parent="1" source="AZC6bpRZ7sntLklHHA0F-6" target="AZC6bpRZ7sntLklHHA0F-8">
          <mxGeometry relative="1" as="geometry" />
        </mxCell>
        <mxCell id="AZC6bpRZ7sntLklHHA0F-11" value="" style="edgeStyle=orthogonalEdgeStyle;rounded=0;orthogonalLoop=1;jettySize=auto;html=1;" edge="1" parent="1" source="AZC6bpRZ7sntLklHHA0F-6" target="AZC6bpRZ7sntLklHHA0F-10">
          <mxGeometry relative="1" as="geometry" />
        </mxCell>
        <mxCell id="AZC6bpRZ7sntLklHHA0F-6" value="¿Cual numero es mayor?" style="rhombus;whiteSpace=wrap;html=1;fillColor=#474D0A;" vertex="1" parent="1">
          <mxGeometry x="336" y="450" width="156" height="140" as="geometry" />
        </mxCell>
        <mxCell id="AZC6bpRZ7sntLklHHA0F-13" value="" style="edgeStyle=orthogonalEdgeStyle;rounded=0;orthogonalLoop=1;jettySize=auto;html=1;" edge="1" parent="1" source="AZC6bpRZ7sntLklHHA0F-8" target="AZC6bpRZ7sntLklHHA0F-12">
          <mxGeometry relative="1" as="geometry" />
        </mxCell>
        <mxCell id="AZC6bpRZ7sntLklHHA0F-8" value="SI" style="shape=parallelogram;perimeter=parallelogramPerimeter;whiteSpace=wrap;html=1;fixedSize=1;fillColor=#3CFF2E;" vertex="1" parent="1">
          <mxGeometry x="118" y="490" width="120" height="60" as="geometry" />
        </mxCell>
        <mxCell id="AZC6bpRZ7sntLklHHA0F-15" value="" style="edgeStyle=orthogonalEdgeStyle;rounded=0;orthogonalLoop=1;jettySize=auto;html=1;" edge="1" parent="1" source="AZC6bpRZ7sntLklHHA0F-10" target="AZC6bpRZ7sntLklHHA0F-14">
          <mxGeometry relative="1" as="geometry" />
        </mxCell>
        <mxCell id="AZC6bpRZ7sntLklHHA0F-10" value="NO" style="shape=parallelogram;perimeter=parallelogramPerimeter;whiteSpace=wrap;html=1;fixedSize=1;fillColor=#3CFF2E;" vertex="1" parent="1">
          <mxGeometry x="590" y="490" width="120" height="60" as="geometry" />
        </mxCell>
        <mxCell id="AZC6bpRZ7sntLklHHA0F-17" value="" style="edgeStyle=orthogonalEdgeStyle;rounded=0;orthogonalLoop=1;jettySize=auto;html=1;" edge="1" parent="1" source="AZC6bpRZ7sntLklHHA0F-12" target="AZC6bpRZ7sntLklHHA0F-16">
          <mxGeometry relative="1" as="geometry" />
        </mxCell>
        <mxCell id="AZC6bpRZ7sntLklHHA0F-12" value="Asignar el máximo a una variable" style="shape=parallelogram;perimeter=parallelogramPerimeter;whiteSpace=wrap;html=1;fixedSize=1;fillColor=#3CFF2E;" vertex="1" parent="1">
          <mxGeometry x="-30" y="650" width="228" height="60" as="geometry" />
        </mxCell>
        <mxCell id="AZC6bpRZ7sntLklHHA0F-18" style="edgeStyle=orthogonalEdgeStyle;rounded=0;orthogonalLoop=1;jettySize=auto;html=1;entryX=1;entryY=0.5;entryDx=0;entryDy=0;" edge="1" parent="1" source="AZC6bpRZ7sntLklHHA0F-14" target="AZC6bpRZ7sntLklHHA0F-16">
          <mxGeometry relative="1" as="geometry" />
        </mxCell>
        <mxCell id="AZC6bpRZ7sntLklHHA0F-14" value="Iniciar el MCM con el VALOR de maxino" style="shape=parallelogram;perimeter=parallelogramPerimeter;whiteSpace=wrap;html=1;fixedSize=1;fillColor=#3CFF2E;" vertex="1" parent="1">
          <mxGeometry x="620" y="640" width="255" height="60" as="geometry" />
        </mxCell>
        <mxCell id="AZC6bpRZ7sntLklHHA0F-20" value="" style="edgeStyle=orthogonalEdgeStyle;rounded=0;orthogonalLoop=1;jettySize=auto;html=1;entryX=0.5;entryY=0;entryDx=0;entryDy=0;" edge="1" parent="1" target="AZC6bpRZ7sntLklHHA0F-19">
          <mxGeometry relative="1" as="geometry">
            <mxPoint x="393" y="710" as="sourcePoint" />
            <mxPoint x="280" y="790" as="targetPoint" />
          </mxGeometry>
        </mxCell>
        <mxCell id="AZC6bpRZ7sntLklHHA0F-23" style="edgeStyle=orthogonalEdgeStyle;rounded=0;orthogonalLoop=1;jettySize=auto;html=1;exitX=1;exitY=1;exitDx=0;exitDy=0;entryX=0.5;entryY=0;entryDx=0;entryDy=0;" edge="1" parent="1" source="AZC6bpRZ7sntLklHHA0F-16" target="AZC6bpRZ7sntLklHHA0F-21">
          <mxGeometry relative="1" as="geometry">
            <mxPoint x="530" y="780" as="targetPoint" />
          </mxGeometry>
        </mxCell>
        <mxCell id="AZC6bpRZ7sntLklHHA0F-16" value="¿Es el MCM divisible por ambos números?" style="rhombus;whiteSpace=wrap;html=1;fillColor=#474D0A;" vertex="1" parent="1">
          <mxGeometry x="354" y="600" width="118" height="140" as="geometry" />
        </mxCell>
        <mxCell id="AZC6bpRZ7sntLklHHA0F-25" value="" style="edgeStyle=orthogonalEdgeStyle;rounded=0;orthogonalLoop=1;jettySize=auto;html=1;" edge="1" parent="1" source="AZC6bpRZ7sntLklHHA0F-19" target="AZC6bpRZ7sntLklHHA0F-24">
          <mxGeometry relative="1" as="geometry" />
        </mxCell>
        <mxCell id="AZC6bpRZ7sntLklHHA0F-19" value="SI" style="shape=parallelogram;perimeter=parallelogramPerimeter;whiteSpace=wrap;html=1;fixedSize=1;fillColor=#3CFF2E;" vertex="1" parent="1">
          <mxGeometry x="216" y="800" width="120" height="60" as="geometry" />
        </mxCell>
        <mxCell id="AZC6bpRZ7sntLklHHA0F-27" value="" style="edgeStyle=orthogonalEdgeStyle;rounded=0;orthogonalLoop=1;jettySize=auto;html=1;" edge="1" parent="1" source="AZC6bpRZ7sntLklHHA0F-21" target="AZC6bpRZ7sntLklHHA0F-26">
          <mxGeometry relative="1" as="geometry" />
        </mxCell>
        <mxCell id="AZC6bpRZ7sntLklHHA0F-21" value="No" style="shape=parallelogram;perimeter=parallelogramPerimeter;whiteSpace=wrap;html=1;fixedSize=1;fillColor=#3CFF2E;" vertex="1" parent="1">
          <mxGeometry x="500" y="800" width="120" height="60" as="geometry" />
        </mxCell>
        <mxCell id="AZC6bpRZ7sntLklHHA0F-30" style="edgeStyle=orthogonalEdgeStyle;rounded=0;orthogonalLoop=1;jettySize=auto;html=1;entryX=0;entryY=0.5;entryDx=0;entryDy=0;" edge="1" parent="1" source="AZC6bpRZ7sntLklHHA0F-24" target="AZC6bpRZ7sntLklHHA0F-29">
          <mxGeometry relative="1" as="geometry" />
        </mxCell>
        <mxCell id="AZC6bpRZ7sntLklHHA0F-24" value="Mostrar el MCM calculado" style="shape=parallelogram;perimeter=parallelogramPerimeter;whiteSpace=wrap;html=1;fixedSize=1;fillColor=#3CFF2E;" vertex="1" parent="1">
          <mxGeometry x="20" y="940" width="234" height="60" as="geometry" />
        </mxCell>
        <mxCell id="AZC6bpRZ7sntLklHHA0F-31" value="" style="edgeStyle=orthogonalEdgeStyle;rounded=0;orthogonalLoop=1;jettySize=auto;html=1;" edge="1" parent="1" source="AZC6bpRZ7sntLklHHA0F-26" target="AZC6bpRZ7sntLklHHA0F-29">
          <mxGeometry relative="1" as="geometry" />
        </mxCell>
        <mxCell id="AZC6bpRZ7sntLklHHA0F-26" value="Actualizar el MCM sumando el maximo" style="shape=parallelogram;perimeter=parallelogramPerimeter;whiteSpace=wrap;html=1;fixedSize=1;fillColor=#3CFF2E;" vertex="1" parent="1">
          <mxGeometry x="590" y="940" width="210" height="60" as="geometry" />
        </mxCell>
        <mxCell id="AZC6bpRZ7sntLklHHA0F-29" value="FIN" style="ellipse;whiteSpace=wrap;html=1;fillColor=#5EA9FF;" vertex="1" parent="1">
          <mxGeometry x="370" y="920" width="120" height="80" as="geometry" />
        </mxCell>
      </root>
    </mxGraphModel>
  </diagram>
</mxfile>
